<?xml version="1.0" encoding="utf-8"?>
<!-- Generator: Adobe Illustrator 24.1.2, SVG Export Plug-In . SVG Version: 6.00 Build 0)  -->
<svg version="1.1" id="Calque_1" xmlns="http://www.w3.org/2000/svg" xmlns:xlink="http://www.w3.org/1999/xlink" x="0px" y="0px"
	 viewBox="0 0 281.6 137.4" style="enable-background:new 0 0 281.6 137.4;" xml:space="preserve">
<style type="text/css">
	.Ombre_x0020_portée{fill:none;}
	.Arrondis_x0020_2 pt{fill:#FFFFFF;stroke:#000000;stroke-miterlimit:10;}
	.Miroir_x0020_dynamique X{fill:none;}
	.Biseau_x0020_adouci{fill:url(#SVGID_1_);}
	.Crépuscule{fill:#FFFFFF;}
	.Feuillage_GS{fill:#FFDD00;}
	.Pompadour_GS{fill-rule:evenodd;clip-rule:evenodd;fill:#51AEE2;}
	.st0{enable-background:new    ;}
	.st1{fill:#DB4068;stroke:#DB4068;stroke-width:1.037;stroke-miterlimit:10;}
	.st2{fill:#76AD37;}
	.st3{fill:#7ABA4B;stroke:#7ABA4B;stroke-width:1.6529;stroke-miterlimit:10;}
	.st4{fill:#FFFFFF;stroke:#DB4068;stroke-width:1.9038;stroke-linecap:round;stroke-miterlimit:10;}
	.st5{fill:#FFFFFF;stroke:#DB4068;stroke-width:1.9041;stroke-linecap:round;stroke-miterlimit:10;}
	.st6{fill:#DB4068;stroke:#DB4068;stroke-width:1.0377;stroke-miterlimit:10;}
	.st7{fill:#DB4068;stroke:#DB4068;stroke-width:1.6529;stroke-miterlimit:10.0003;}
	.st8{fill:#FFFFFF;stroke:#DB4068;stroke-width:2.747;stroke-linecap:round;stroke-miterlimit:10;}
</style>
<linearGradient id="SVGID_1_" gradientUnits="userSpaceOnUse" x1="-8.1851" y1="-54.8013" x2="-7.478" y2="-54.0942">
	<stop  offset="0" style="stop-color:#E6E6EB"/>
	<stop  offset="0.1738" style="stop-color:#E2E2E6"/>
	<stop  offset="0.352" style="stop-color:#D5D4D8"/>
	<stop  offset="0.5323" style="stop-color:#C0BFC2"/>
	<stop  offset="0.7139" style="stop-color:#A4A2A4"/>
	<stop  offset="0.8949" style="stop-color:#828282"/>
	<stop  offset="1" style="stop-color:#6B6E6E"/>
</linearGradient>
<g>
	<g id="Groupe_64_2_">
		<g class="st0">
			<path class="st1" d="M9,126.3v5.1H6.2v-13.3H10c1.8,0,3.2,0.3,4,1s1.3,1.7,1.3,3c0,0.8-0.2,1.5-0.6,2.1c-0.4,0.6-1,1.1-1.8,1.4
				c2,3,3.3,4.9,3.9,5.8h-3.1l-3.2-5.1H9z M9,124h0.9c0.9,0,1.6-0.1,2-0.4s0.6-0.8,0.6-1.4c0-0.6-0.2-1.1-0.7-1.3
				c-0.4-0.3-1.1-0.4-2-0.4H9V124z"/>
			<path class="st1" d="M26.2,131.4h-7.7v-13.3h7.7v2.3h-4.9v2.9h4.5v2.3h-4.5v3.4h4.9V131.4z M20.7,117.1v-0.2
				c1-1.2,1.8-2.1,2.1-2.7H26v0.2c-0.3,0.3-0.9,0.8-1.6,1.4c-0.8,0.6-1.4,1.1-1.8,1.4H20.7z"/>
			<path class="st1" d="M34,124h5.3v6.9c-0.9,0.3-1.7,0.5-2.4,0.6c-0.8,0.1-1.5,0.2-2.3,0.2c-2,0-3.6-0.6-4.6-1.8
				c-1.1-1.2-1.6-2.9-1.6-5.1c0-2.1,0.6-3.8,1.8-5s2.9-1.8,5.1-1.8c1.4,0,2.7,0.3,4,0.8l-0.9,2.3c-1-0.5-2-0.7-3-0.7
				c-1.2,0-2.2,0.4-2.9,1.2c-0.7,0.8-1.1,1.9-1.1,3.3c0,1.4,0.3,2.5,0.9,3.3c0.6,0.8,1.5,1.1,2.6,1.1c0.6,0,1.2-0.1,1.8-0.2v-2.8H34
				V124z"/>
			<path class="st1" d="M50.7,131.4l-1-3.2h-4.9l-1,3.2h-3l4.7-13.4H49l4.7,13.4H50.7z M49,125.9c-0.9-2.9-1.4-4.5-1.5-4.9
				c-0.1-0.4-0.2-0.7-0.2-0.9c-0.2,0.8-0.8,2.7-1.7,5.8H49z"/>
			<path class="st1" d="M55.4,131.4v-13.3h2.8v11h5.4v2.3H55.4z"/>
			<path class="st1" d="M73.6,131.4h-7.7v-13.3h7.7v2.3h-4.9v2.9h4.5v2.3h-4.5v3.4h4.9V131.4z"/>
			<path class="st1" d="M85.1,131.4h-9.9v-1.8l6.4-9.1h-6.2v-2.3h9.6v1.8l-6.4,9.2h6.6V131.4z"/>
			<path class="st1" d="M86.1,127.6v-2.3H91v2.3H86.1z"/>
			<path class="st1" d="M100.9,118.1h2.9l-4.5,13.3h-3.1l-4.5-13.3h2.9l2.5,7.9c0.1,0.5,0.3,1,0.4,1.6c0.1,0.6,0.2,1.1,0.3,1.3
				c0.1-0.6,0.3-1.5,0.7-2.9L100.9,118.1z"/>
			<path class="st1" d="M117.5,124.8c0,2.2-0.5,3.9-1.6,5.1c-1.1,1.2-2.7,1.8-4.7,1.8c-2,0-3.6-0.6-4.7-1.8
				c-1.1-1.2-1.6-2.9-1.6-5.1s0.5-3.9,1.6-5.1c1.1-1.2,2.7-1.8,4.7-1.8c2,0,3.6,0.6,4.7,1.8S117.5,122.6,117.5,124.8z M107.8,124.8
				c0,1.5,0.3,2.6,0.8,3.4c0.6,0.8,1.4,1.1,2.5,1.1c2.3,0,3.4-1.5,3.4-4.5c0-3-1.1-4.5-3.4-4.5c-1.1,0-2,0.4-2.5,1.1
				C108.1,122.2,107.8,123.3,107.8,124.8z"/>
			<path class="st1" d="M131.1,118.1v8.6c0,1-0.2,1.8-0.7,2.6c-0.4,0.7-1.1,1.3-1.9,1.7s-1.8,0.6-3,0.6c-1.7,0-3-0.4-4-1.3
				c-0.9-0.9-1.4-2.1-1.4-3.6v-8.6h2.8v8.1c0,1,0.2,1.8,0.6,2.3s1.1,0.7,2.1,0.7c0.9,0,1.6-0.2,2-0.7c0.4-0.5,0.6-1.2,0.6-2.3v-8.1
				H131.1z"/>
			<path class="st1" d="M142.3,127.7c0,1.2-0.4,2.1-1.3,2.8c-0.9,0.7-2.1,1-3.6,1c-1.4,0-2.7-0.3-3.8-0.8v-2.6
				c0.9,0.4,1.7,0.7,2.3,0.8c0.6,0.2,1.2,0.2,1.7,0.2c0.6,0,1.1-0.1,1.4-0.4s0.5-0.6,0.5-1.1c0-0.3-0.1-0.5-0.2-0.7
				c-0.1-0.2-0.4-0.4-0.6-0.6c-0.3-0.2-0.9-0.5-1.7-0.9c-0.8-0.4-1.4-0.7-1.8-1.1s-0.7-0.8-1-1.2s-0.4-1-0.4-1.6
				c0-1.2,0.4-2.1,1.2-2.8c0.8-0.7,1.9-1,3.3-1c0.7,0,1.4,0.1,2,0.2s1.3,0.4,2,0.7l-0.9,2.2c-0.7-0.3-1.3-0.5-1.8-0.6
				s-0.9-0.2-1.4-0.2c-0.5,0-0.9,0.1-1.2,0.4c-0.3,0.2-0.4,0.6-0.4,1c0,0.2,0.1,0.5,0.2,0.7c0.1,0.2,0.3,0.4,0.6,0.5
				s0.9,0.5,1.8,0.9c1.2,0.6,2.1,1.2,2.6,1.8C142,126.1,142.3,126.9,142.3,127.7z"/>
			<path class="st1" d="M160.6,124.7c0,2.2-0.6,3.9-1.9,5c-1.3,1.2-3.1,1.7-5.4,1.7h-3.8v-13.3h4.2c2.2,0,3.9,0.6,5.1,1.7
				C160,121,160.6,122.6,160.6,124.7z M157.7,124.7c0-2.9-1.3-4.3-3.8-4.3h-1.5v8.7h1.2C156.3,129.1,157.7,127.7,157.7,124.7z"/>
			<path class="st1" d="M171.1,131.4h-7.7v-13.3h7.7v2.3h-4.9v2.9h4.5v2.3h-4.5v3.4h4.9V131.4z"/>
			<path class="st1" d="M184.4,120.3c-1.1,0-1.9,0.4-2.5,1.2c-0.6,0.8-0.9,1.9-0.9,3.3c0,3,1.1,4.4,3.3,4.4c0.9,0,2.1-0.2,3.4-0.7
				v2.4c-1.1,0.5-2.3,0.7-3.7,0.7c-1.9,0-3.4-0.6-4.5-1.8c-1-1.2-1.5-2.9-1.5-5.1c0-1.4,0.3-2.6,0.8-3.6c0.5-1,1.2-1.8,2.2-2.4
				c0.9-0.6,2.1-0.8,3.3-0.8c1.3,0,2.6,0.3,3.9,0.9l-0.9,2.3c-0.5-0.2-1-0.4-1.5-0.6C185.4,120.4,184.9,120.3,184.4,120.3z"/>
			<path class="st1" d="M201.6,131.4h-2.8v-5.7h-5.3v5.7h-2.8v-13.3h2.8v5.2h5.3v-5.2h2.8V131.4z"/>
			<path class="st1" d="M212.6,131.4h-7.7v-13.3h7.7v2.3h-4.9v2.9h4.5v2.3h-4.5v3.4h4.9V131.4z"/>
			<path class="st1" d="M224.1,131.4h-9.9v-1.8l6.4-9.1h-6.2v-2.3h9.6v1.8l-6.4,9.2h6.6V131.4z"/>
			<path class="st1" d="M238.7,118.1h2.9l-4.5,13.3h-3.1l-4.5-13.3h2.9l2.5,7.9c0.1,0.5,0.3,1,0.4,1.6c0.1,0.6,0.2,1.1,0.3,1.3
				c0.1-0.6,0.3-1.5,0.7-2.9L238.7,118.1z"/>
			<path class="st1" d="M255.3,124.8c0,2.2-0.5,3.9-1.6,5.1c-1.1,1.2-2.7,1.8-4.7,1.8s-3.6-0.6-4.7-1.8c-1.1-1.2-1.6-2.9-1.6-5.1
				s0.5-3.9,1.6-5.1c1.1-1.2,2.7-1.8,4.7-1.8c2,0,3.6,0.6,4.7,1.8S255.3,122.6,255.3,124.8z M245.6,124.8c0,1.5,0.3,2.6,0.8,3.4
				c0.6,0.8,1.4,1.1,2.5,1.1c2.3,0,3.4-1.5,3.4-4.5c0-3-1.1-4.5-3.4-4.5c-1.1,0-2,0.4-2.5,1.1C245.9,122.2,245.6,123.3,245.6,124.8z
				"/>
			<path class="st1" d="M268.9,118.1v8.6c0,1-0.2,1.8-0.7,2.6c-0.4,0.7-1.1,1.3-1.9,1.7c-0.8,0.4-1.8,0.6-3,0.6c-1.7,0-3-0.4-4-1.3
				c-0.9-0.9-1.4-2.1-1.4-3.6v-8.6h2.8v8.1c0,1,0.2,1.8,0.6,2.3s1.1,0.7,2.1,0.7c0.9,0,1.6-0.2,2-0.7c0.4-0.5,0.6-1.2,0.6-2.3v-8.1
				H268.9z"/>
			<path class="st1" d="M280.1,127.7c0,1.2-0.4,2.1-1.3,2.8c-0.9,0.7-2.1,1-3.6,1c-1.4,0-2.7-0.3-3.8-0.8v-2.6
				c0.9,0.4,1.7,0.7,2.3,0.8c0.6,0.2,1.2,0.2,1.7,0.2c0.6,0,1.1-0.1,1.4-0.4c0.3-0.2,0.5-0.6,0.5-1.1c0-0.3-0.1-0.5-0.2-0.7
				c-0.1-0.2-0.4-0.4-0.6-0.6c-0.3-0.2-0.9-0.5-1.7-0.9c-0.8-0.4-1.4-0.7-1.8-1.1s-0.7-0.8-1-1.2s-0.4-1-0.4-1.6
				c0-1.2,0.4-2.1,1.2-2.8c0.8-0.7,1.9-1,3.3-1c0.7,0,1.4,0.1,2,0.2c0.6,0.2,1.3,0.4,2,0.7l-0.9,2.2c-0.7-0.3-1.3-0.5-1.8-0.6
				s-0.9-0.2-1.4-0.2c-0.5,0-0.9,0.1-1.2,0.4s-0.4,0.6-0.4,1c0,0.2,0.1,0.5,0.2,0.7c0.1,0.2,0.3,0.4,0.6,0.5
				c0.3,0.2,0.8,0.5,1.8,0.9c1.2,0.6,2.1,1.2,2.6,1.8C279.9,126.1,280.1,126.9,280.1,127.7z"/>
		</g>
		<g class="st0">
			<path class="st2" d="M51.2,51.5v17.6H35.7c-2.1,0-3.6,0.3-4.5,0.9c-0.9,0.6-1.3,1.7-1.3,3.1c0,1.7,0.4,2.8,1.3,3.3
				c0.9,0.5,2.7,0.8,5.5,0.8h15.9v22.6H34.1c-8.7,0-15.4-2.1-20-6.2c-4.6-4.2-6.9-10.2-6.9-18v-31c0-7.6,2.2-13.5,6.5-17.6
				c4.4-4.2,10.5-6.3,18.4-6.3h20.5v22.7H37.6c-4.1,0-6.1,1.3-6.1,3.9c0,1.5,0.5,2.6,1.5,3.2c1,0.6,2.7,0.9,5.2,0.9H51.2z"/>
			<path class="st2" d="M101,60.1V81h-6.8v18.9H70.6V49.5c0-9.7,2.7-17.3,8-22.7c5.3-5.4,12.8-8.1,22.5-8.1c9.3,0,16.2,2.4,20.7,7.3
				c4.5,4.9,6.7,12.4,6.7,22.7v51.2h-23.6V50.2c0-3.1-0.4-5.2-1.1-6.4c-0.7-1.2-2.1-1.8-4-1.8c-3.7,0-5.5,2.7-5.5,8.2v9.9H101z"/>
			<path class="st2" d="M183.2,43.4v56.4h-23.6V43.4h-18.1V20.7h59.8v22.7H183.2z"/>
		</g>
		<g class="st0">
			<path class="st3" d="M51.2,51.5v17.6H35.7c-2.1,0-3.6,0.3-4.5,0.9c-0.9,0.6-1.3,1.7-1.3,3.1c0,1.7,0.4,2.8,1.3,3.3
				c0.9,0.5,2.7,0.8,5.5,0.8h15.9v22.6H34.1c-8.7,0-15.4-2.1-20-6.2c-4.6-4.2-6.9-10.2-6.9-18v-31c0-7.6,2.2-13.5,6.5-17.6
				c4.4-4.2,10.5-6.3,18.4-6.3h20.5v22.7H37.6c-4.1,0-6.1,1.3-6.1,3.9c0,1.5,0.5,2.6,1.5,3.2c1,0.6,2.7,0.9,5.2,0.9H51.2z"/>
			<path class="st3" d="M101,60.1V81h-6.8v18.9H70.6V49.5c0-9.7,2.7-17.3,8-22.7c5.3-5.4,12.8-8.1,22.5-8.1c9.3,0,16.2,2.4,20.7,7.3
				c4.5,4.9,6.7,12.4,6.7,22.7v51.2h-23.6V50.2c0-3.1-0.4-5.2-1.1-6.4c-0.7-1.2-2.1-1.8-4-1.8c-3.7,0-5.5,2.7-5.5,8.2v9.9H101z"/>
			<path class="st3" d="M183.2,43.4v56.4h-23.6V43.4h-18.1V20.7h59.8v22.7H183.2z"/>
		</g>
		<g id="Groupe_63_2_">
			<path id="Tracé_43_2_" class="st4" d="M249.2,18.9L249.2,18.9c1.7,0,3,1.1,3,2.3l0.3,32.8c0,1.3-1.3,2.3-2.9,2.3l0,0
				c-1.7,0-3-1.1-3-2.3l-0.3-32.8C246.2,20,247.5,18.9,249.2,18.9z"/>
			<path id="Tracé_44_2_" class="st4" d="M273.5,18.9L273.5,18.9c1.7,0,3,1.1,3,2.3l0.3,32.8c0,1.3-1.3,2.3-2.9,2.3l0,0
				c-1.7,0-3-1.1-3-2.3l-0.3-32.8C270.6,20,271.9,18.9,273.5,18.9z"/>
			<path id="Tracé_45_2_" class="st5" d="M261.2,18.9L261.2,18.9c1.7,0,3,1.1,3,2.3l0.3,32.8c0,1.3-1.3,2.3-2.9,2.3l0,0
				c-1.7,0-3-1.1-3-2.3l-0.3-32.8C258.2,20,259.5,18.9,261.2,18.9z"/>
			<g class="st0">
				<path class="st6" d="M238.7,54.2l0.3,39.6l-11.8,0.1l-0.3-39.6L238.7,54.2z"/>
				<path class="st6" d="M267,65.4l0.2,28.2l-11.8,0.1l-0.2-28.2l-9,0.1l-0.1-11.4L276,54l0.1,11.4L267,65.4z"/>
			</g>
			<g class="st0">
				<path class="st7" d="M239.8,54.2l0.3,39.6l-11.8,0.1L228,54.3L239.8,54.2z"/>
				<path class="st7" d="M268.1,65.4l0.2,28.2l-11.8,0.1l-0.2-28.2l-9,0.1l-0.1-11.4L277,54l0.1,11.4L268.1,65.4z"/>
			</g>
		</g>
	</g>
	<path id="Tracé_46_2_" class="st8" d="M221.5,39.2c-0.1,10.9,11.6,20.8,15.8,20.5c2.1-0.1,1.7-2.8,1.8-20.5
		c0.1-17.6,0.5-20.3-1.6-20.5C233.3,18.5,221.6,28.4,221.5,39.2z"/>
</g>
<g>
</g>
<g>
</g>
<g>
</g>
<g>
</g>
<g>
</g>
<g>
</g>
</svg>
